<?xml version="1.0" encoding="UTF-8"?>
<svg xmlns="http://www.w3.org/2000/svg" xmlns:xlink="http://www.w3.org/1999/xlink" width="28px" height="28px" viewBox="0 0 28 28" version="1.1">
<g id="surface1">
<path style=" stroke:none;fill-rule:nonzero;fill:rgb(0%,0%,0%);fill-opacity:1;" d="M 25.777344 0.578125 L 2.222656 0.578125 C 0.996094 0.578125 0 1.574219 0 2.796875 L 0 25.199219 C 0 26.425781 0.996094 27.421875 2.222656 27.421875 L 25.777344 27.421875 C 27.003906 27.421875 28 26.425781 28 25.199219 L 28 2.796875 C 28 1.574219 27.003906 0.578125 25.777344 0.578125 Z M 26.839844 25.199219 C 26.839844 25.785156 26.363281 26.265625 25.777344 26.265625 L 2.222656 26.265625 C 1.636719 26.265625 1.160156 25.785156 1.160156 25.199219 L 1.160156 2.796875 C 1.160156 2.210938 1.636719 1.734375 2.222656 1.734375 L 25.777344 1.734375 C 26.363281 1.734375 26.839844 2.210938 26.839844 2.796875 Z M 26.839844 25.199219 "/>
<path style=" stroke:none;fill-rule:nonzero;fill:rgb(0%,0%,0%);fill-opacity:1;" d="M 22.675781 5.601562 L 19.683594 5.601562 C 19.363281 5.601562 19.105469 5.859375 19.105469 6.179688 C 19.105469 6.5 19.363281 6.757812 19.683594 6.757812 L 20.601562 6.757812 L 20.601562 15.355469 C 20.601562 15.941406 20.125 16.417969 19.539062 16.417969 L 8.460938 16.417969 C 7.875 16.417969 7.398438 15.941406 7.398438 15.355469 L 7.398438 6.757812 L 8.316406 6.757812 C 8.636719 6.757812 8.894531 6.5 8.894531 6.179688 C 8.894531 5.859375 8.636719 5.601562 8.316406 5.601562 L 5.320312 5.601562 C 5.003906 5.601562 4.742188 5.859375 4.742188 6.179688 C 4.742188 6.5 5.003906 6.757812 5.320312 6.757812 L 6.238281 6.757812 L 6.238281 15.355469 C 6.238281 16.578125 7.238281 17.574219 8.460938 17.574219 L 19.539062 17.574219 C 20.765625 17.574219 21.761719 16.578125 21.761719 15.355469 L 21.761719 6.757812 L 22.679688 6.757812 C 23 6.757812 23.257812 6.5 23.257812 6.179688 C 23.257812 5.859375 22.996094 5.601562 22.675781 5.601562 Z M 22.675781 5.601562 "/>
</g>
</svg>
